<svg width="1176" height="232" viewBox="0 0 1176 232" fill="none" xmlns="http://www.w3.org/2000/svg">
<path d="M360.855 131.754C350.184 122.447 342.291 113.19 332.302 107.781C329.305 106.173 324.993 105.296 320.779 105.296C316.515 105.296 312.349 106.173 309.718 108.025C301.07 114.115 306.113 122.813 312.057 130.024C321.193 141.109 329.915 152.535 338.514 164.034C347.114 175.533 353.984 181.355 360.684 181.355C367.384 181.355 373.888 175.533 381.733 163.717C418.691 108.049 461.154 57.0103 508.685 10.1129C511.706 7.11636 514.215 3.58383 516.944 0.294922C452.091 28.6526 405.17 77.4989 360.83 131.729L360.855 131.754Z" fill="#FFD004"/>
<path d="M19.0026 27.3613H17.3947C12.6441 27.3613 8.50249 29.091 5.11614 32.4774C1.72978 35.8638 6.10352e-05 40.0053 6.10352e-05 44.756V45.8279C6.10352e-05 50.5786 1.72978 54.7202 5.11614 58.1065C8.50249 61.4929 12.6441 63.2226 17.3947 63.2226H19.0026C23.7533 63.2226 27.8949 61.4929 31.2812 58.1065C34.6676 54.7202 36.3973 50.5786 36.3973 45.8279V44.756C36.3973 40.0053 34.6676 35.8638 31.2812 32.4774C27.8949 29.091 23.7533 27.3613 19.0026 27.3613Z" fill="#FFD004"/>
<path d="M215.68 64.5634C207.47 55.1595 197.091 47.5098 184.837 41.8334C172.559 36.157 157.893 33.2822 141.277 33.2822H87.1445C82.7105 33.2822 78.9344 34.8901 75.8891 38.0329C72.8925 41.1512 71.3577 44.9518 71.3577 49.3126V212.783C71.3577 217.193 72.8925 220.969 75.9378 223.99C78.9588 227.011 82.7349 228.57 87.1445 228.57H141.277C157.893 228.57 172.559 225.695 184.837 220.019C197.091 214.367 207.47 206.717 215.68 197.289C223.841 187.91 230.005 177.312 234.025 165.789C237.996 154.314 240.018 142.596 240.018 130.926C240.018 119.257 237.996 107.538 234.025 96.0638C230.029 84.5404 223.866 73.9429 215.68 64.5634ZM199.893 166.178C194.241 176.216 186.128 184.158 175.75 189.81C165.299 195.511 152.703 198.385 138.305 198.385H103.175V63.4914H138.305C152.703 63.4914 165.299 66.3662 175.75 72.067C186.128 77.719 194.241 85.6611 199.893 95.6984C205.569 105.784 208.444 117.624 208.444 130.926C208.444 144.228 205.569 156.092 199.893 166.154V166.178Z" fill="black"/>
<path d="M616.074 63.491C620.264 63.491 623.87 62.0536 626.818 59.252C629.79 56.3772 631.3 52.7716 631.3 48.5326C631.3 44.2935 629.814 40.6879 626.866 37.7401C623.919 34.7922 620.289 33.3062 616.074 33.3062H508.076C503.642 33.3062 499.866 34.9141 496.821 38.0568C493.824 41.1752 492.289 44.9757 492.289 49.3365V212.807C492.289 217.217 493.824 220.993 496.869 224.014C499.89 227.035 503.666 228.594 508.076 228.594H616.074C620.264 228.594 623.87 227.157 626.818 224.355C629.79 221.48 631.3 217.875 631.3 213.636C631.3 209.397 629.814 205.791 626.866 202.843C623.919 199.895 620.289 198.409 616.074 198.409H524.131V145.933H606.378C610.568 145.933 614.174 144.496 617.121 141.694C620.094 138.819 621.604 135.214 621.604 130.974C621.604 126.735 620.118 123.13 617.17 120.182C614.222 117.234 610.592 115.748 606.378 115.748H524.131V63.5397H616.074V63.491Z" fill="black"/>
<path d="M976.075 131.657C969.034 127.686 961.238 124.446 952.931 122.034C944.769 119.671 936.559 117.527 928.495 115.651C920.553 113.799 913.147 111.704 906.496 109.414C900.211 107.27 895.143 104.371 891.416 100.814C888.005 97.5496 886.349 93.2131 886.349 87.561C886.349 78.8393 890.247 72.4077 898.237 67.852C906.788 62.9795 917.703 60.5189 930.639 60.5189C938.63 60.5189 946.255 61.1767 953.272 62.4679C960.312 63.7835 966.89 65.4888 972.786 67.584L972.932 67.6327L973.103 67.6814C973.712 67.8276 974.296 68.0225 974.881 68.2418C976.002 68.6559 977.147 68.8752 978.316 68.8752C982.823 68.8752 986.575 67.1211 989.157 63.8322C991.545 60.7625 992.763 57.4249 992.763 53.9167C992.763 49.7508 991.667 46.4619 989.474 44.1475C987.549 42.1254 985.308 40.6393 982.823 39.7135C975.49 36.9606 967.134 34.7436 957.974 33.087C948.838 31.4304 938.727 30.6021 927.984 30.6021C912.416 30.6021 899.017 33.2575 888.151 38.4954C877.164 43.8064 868.735 50.9933 863.083 59.8855C857.43 68.7777 854.58 78.7419 854.58 89.4369C854.58 100.132 856.87 108.245 861.377 115.042C865.811 121.693 871.731 127.174 879.015 131.389C886.032 135.457 893.828 138.795 902.135 141.28C910.272 143.716 918.531 145.957 926.692 147.931C934.708 149.88 942.163 152.024 948.862 154.289C955.221 156.458 960.337 159.186 964.113 162.378C967.402 165.179 969.01 168.809 969.01 173.462C969.01 180.308 967.28 185.546 963.747 189.468C960.117 193.488 955.05 196.387 948.692 198.068C941.943 199.871 934.147 200.773 925.523 200.773C914.389 200.773 904.425 199.627 895.874 197.386C887.226 195.12 879.844 192.66 873.924 190.029C871.853 189.103 869.636 188.64 867.322 188.64C862.839 188.64 859.185 190.199 856.505 193.245C853.947 196.168 852.631 199.652 852.631 203.599C852.631 206.717 853.654 209.665 855.628 212.369C857.504 214.927 859.769 216.803 862.303 217.972C870.416 221.48 880.014 224.574 890.831 227.206C901.745 229.861 914.243 231.225 927.911 231.225C942.357 231.225 955.123 228.862 965.867 224.185C976.757 219.458 985.332 212.734 991.374 204.232C997.44 195.656 1000.53 185.838 1000.53 175.046C1000.53 164.253 998.244 155.093 993.762 148.15C989.328 141.304 983.359 135.75 976.075 131.608V131.657Z" fill="black"/>
<path d="M1171 36.7413C1168.02 33.5498 1164.2 31.9419 1159.57 31.9419C1153.87 31.9419 1149.1 34.6461 1145.73 39.7865L1092.5 117.21L1039.22 39.7135C1035.91 34.6461 1031.13 31.9419 1025.43 31.9419C1020.97 31.9419 1017.22 33.5498 1014.27 36.7413C1011.4 39.8596 1009.94 43.6358 1009.94 47.9723C1009.94 51.1637 1010.84 54.2577 1012.64 57.1568L1012.72 57.2543L1012.79 57.3517L1076.47 146.615V214.123C1076.47 218.557 1078.08 222.333 1081.22 225.378C1084.34 228.375 1088.14 229.91 1092.5 229.91C1096.86 229.91 1100.66 228.375 1103.71 225.354C1106.75 222.309 1108.29 218.557 1108.29 214.147V146.639L1172.24 57.3761L1172.31 57.2787L1172.39 57.1812C1174.16 54.3065 1175.07 51.2368 1175.09 48.0941C1175.28 43.7089 1173.92 39.9084 1171.02 36.7656L1171 36.7413Z" fill="black"/>
<path d="M17.9307 82.5669C13.5212 82.5669 9.76937 84.1017 6.72409 87.147C3.6788 90.1923 2.14398 94.0415 2.14398 98.6216V214.148C2.14398 218.557 3.6788 222.333 6.72409 225.354C9.74501 228.375 13.5212 229.91 17.9307 229.91C22.3403 229.91 26.3601 228.375 29.4054 225.354C32.4506 222.309 33.9855 218.557 33.9855 214.148V98.6216C33.9855 94.0415 32.4506 90.1923 29.4054 87.147C26.3601 84.1017 22.5108 82.5669 17.9307 82.5669Z" fill="black"/>
<path d="M453.187 96.0635C444.124 107.075 435.329 118.233 426.827 129.562C426.827 130.024 426.851 130.463 426.851 130.926C426.851 144.13 424.22 156.165 419.007 166.738C413.866 177.214 406.289 185.644 396.496 191.783C386.727 197.922 374.594 201.04 360.464 201.04C346.334 201.04 334.201 197.922 324.432 191.783C314.639 185.619 307.086 177.19 301.921 166.738C296.708 156.165 294.077 144.13 294.077 130.926C294.077 117.722 296.708 105.687 301.921 95.1133C307.062 84.6619 314.639 76.2326 324.432 70.0689C334.201 63.9296 346.334 60.8113 360.464 60.8113C373.352 60.8113 384.558 63.4424 393.865 68.5585C401.222 60.9818 408.823 53.5757 416.741 46.4132C415.23 45.4143 413.72 44.4155 412.161 43.4897C397.641 34.9385 380.271 30.6021 360.488 30.6021C340.706 30.6021 323.312 34.9385 308.816 43.4897C294.272 52.0652 282.846 64.0514 274.855 79.1317C266.889 94.1145 262.674 111.534 262.308 130.877V130.95V131.023C262.674 150.367 266.889 167.786 274.855 182.769C282.87 197.849 294.296 209.835 308.816 218.411C323.312 226.962 340.706 231.298 360.488 231.298C380.271 231.298 397.665 226.962 412.161 218.411C426.681 209.86 438.107 197.849 446.122 182.769C454.064 167.786 458.303 150.367 458.668 131.023V130.95V130.877C458.425 118.428 456.573 106.783 453.187 96.0878V96.0635Z" fill="black"/>
<path d="M762.442 45.2194C760.955 41.833 758.763 38.8365 755.864 36.2541C752.672 33.4037 748.506 31.9663 743.463 31.9663H740.759C735.935 31.9663 731.818 33.4037 728.529 36.2297C725.508 38.8365 723.243 41.8574 721.781 45.2194L653.079 207.375C651.983 210.03 651.447 212.247 651.447 214.196C651.447 218.533 652.86 222.284 655.662 225.305C658.536 228.399 662.41 229.983 667.234 229.983C674.274 229.983 679.439 226.621 682.168 220.238L689.16 203.477L698.759 180.43H698.783L715.13 141.353L742.099 76.4275L767.509 137.601L773.015 150.781H742.294C738.031 150.781 734.449 152.218 731.623 155.044C728.797 157.871 727.36 161.476 727.36 165.715C727.36 169.954 728.797 173.316 731.623 176.142C734.449 178.968 738.031 180.406 742.294 180.406H785.415V180.454H785.44L786.682 183.402V183.451L802.03 220.214C804.783 226.621 809.948 230.007 816.989 230.007C821.812 230.007 825.686 228.424 828.561 225.33C831.338 222.309 832.751 218.581 832.751 214.22C832.751 212.271 832.215 210.055 831.119 207.423L762.442 45.2681V45.2194Z" fill="black"/>
</svg>
